<?xml version="1.0" encoding="utf-8"?>
<!-- Svg Vector Icons : http://www.onlinewebfonts.com/icon -->
<!DOCTYPE svg PUBLIC "-//W3C//DTD SVG 1.1//EN" "http://www.w3.org/Graphics/SVG/1.1/DTD/svg11.dtd">
<svg version="1.1" xmlns="http://www.w3.org/2000/svg" xmlns:xlink="http://www.w3.org/1999/xlink" x="0px" y="0px" viewBox="0 0 256 256" enable-background="new 0 0 256 256" xml:space="preserve">
<metadata> Svg Vector Icons : http://www.onlinewebfonts.com/icon </metadata>
<g><g><path fill="#000000" d="M231.3,61.6V46.9c0-12.2-9.9-22.1-22.1-22.1h-14.8V10h14.8c20.4,0,36.9,16.5,36.9,36.9v14.8C235.8,61.6,233.8,61.6,231.3,61.6z M231.3,128c0,39.1-21.7,73.1-53.8,90.6l24.3,27.4h-22.1l-19.8-19.8c-10,3.3-20.7,5-31.8,5c-11.1,0-21.8-1.8-31.8-5L76.4,246H54.3l24.3-27.4c-32-17.5-53.8-51.5-53.8-90.6C24.8,71,71,24.8,128,24.8C185,24.8,231.3,71,231.3,128z M128,39.5c-48.9,0-88.5,39.6-88.5,88.5c0,48.9,39.6,88.5,88.5,88.5c48.9,0,88.5-39.6,88.5-88.5C216.5,79.1,176.9,39.5,128,39.5z M179.6,135.4H128c-4.1,0-7.4-3.3-7.4-7.4V69c0-4.1,3.3-7.4,7.4-7.4c4.1,0,7.4,3.3,7.4,7.4v51.6h44.3c4.1,0,7.4,3.3,7.4,7.4C187,132.1,183.7,135.4,179.6,135.4z M46.9,24.8c-12.2,0-22.1,9.9-22.1,22.1v14.8c-2.6,0-4.6,0-14.8,0V46.9C10,26.5,26.5,10,46.9,10h14.8v14.8H46.9z"/></g></g>
</svg>